<svg width="70" height="70" viewBox="0 0 70 70" fill="none" xmlns="http://www.w3.org/2000/svg">
<circle cx="35" cy="35" r="35" fill="white"/>
<path fill-rule="evenodd" clip-rule="evenodd" d="M31.7027 0.141851C25.0381 0.734185 18.1529 3.55472 12.8588 7.86094C11.3027 9.12679 8.83883 11.6099 7.59773 13.1635C4.4596 17.0915 1.888 22.4047 0.821465 27.1635C0.151697 30.1527 0 31.6058 0 35.0348C0 38.4638 0.151697 39.9169 0.821465 42.9061C1.91128 47.7687 4.54996 53.1578 7.79242 57.1429C9.05843 58.6988 11.5419 61.1624 13.0957 62.4033C17.0242 65.541 22.3381 68.1123 27.0975 69.1786C30.0871 69.8483 31.5404 70 34.9699 70C38.3994 70 39.8527 69.8483 42.8423 69.1786C46.4207 68.3769 51.0996 66.3777 54.1744 64.3368C59.5071 60.7969 63.6028 56.1394 66.3992 50.4352C68.6634 45.8162 69.7739 41.4221 69.9739 36.2901C70.2928 28.1119 67.6832 20.1067 62.5143 13.4058C61.3595 11.9087 58.0991 8.64876 56.6018 7.49407C49.3688 1.91611 40.6631 -0.654452 31.7027 0.141851ZM35.5203 18.9513C35.7402 19.065 35.9836 19.2765 36.0611 19.4215C36.1525 19.5924 36.2021 22.1642 36.2021 26.7438V33.8028H43.2909C51.0554 33.8028 50.773 33.7733 51.1232 34.6186C51.2617 34.9532 51.2617 35.1164 51.1232 35.4509C50.773 36.2963 51.0554 36.2668 43.2909 36.2668H36.2021V43.3258C36.2021 47.9054 36.1525 50.4772 36.0611 50.6481C35.8464 51.0493 35.151 51.3565 34.6877 51.2548C34.4683 51.2066 34.1647 51.0095 34.0132 50.8168C33.7452 50.4763 33.7377 50.2738 33.7377 43.3667V36.2668H26.6489C18.8844 36.2668 19.1668 36.2963 18.8166 35.4509C18.6781 35.1164 18.6781 34.9532 18.8166 34.6186C19.1668 33.7733 18.8844 33.8028 26.6489 33.8028H33.7377V26.7149C33.7377 19.0416 33.7246 19.1815 34.4711 18.8804C34.8973 18.7083 35.0734 18.7202 35.5203 18.9513Z" fill="black"/>
</svg>
