<svg width="20" height="20" viewBox="0 0 20 20" fill="none" xmlns="http://www.w3.org/2000/svg">
<path fill-rule="evenodd" clip-rule="evenodd" d="M0.723538 0.144303C0.368441 0.305389 0.107672 0.649838 0.0300047 1.06041C-0.0810609 1.6477 -0.0555635 1.67756 4.21053 5.95085L8.24878 9.99591L4.20544 14.0404C1.97874 16.2676 0.125271 18.1836 0.0802187 18.3047C-0.0549372 18.6683 -0.0169248 19.094 0.176267 19.3804C0.543174 19.9246 1.1233 20.1299 1.6945 19.9179C1.81574 19.8728 3.7331 18.0207 5.96192 15.7956L10.0092 11.7551L14.0572 15.7928C17.5626 19.2892 18.1498 19.8435 18.4376 19.9274C19.3467 20.1926 20.2146 19.3253 19.9492 18.4169C19.8652 18.1293 19.3106 17.5425 15.812 14.04L11.7718 9.99521L15.8098 5.95046C19.0216 2.73326 19.8671 1.84466 19.9423 1.60753C20.2174 0.74105 19.4685 -0.105808 18.5461 0.0284697C18.191 0.0802113 18.0983 0.166187 14.096 4.15795L10.0085 8.23459L6.00072 4.23267C3.23284 1.46887 1.90295 0.193621 1.70209 0.110772C1.32384 -0.0453121 1.1265 -0.0385122 0.723538 0.144303Z" fill="black"/>
</svg>
