<svg width="13" height="19" viewBox="0 0 13 19" fill="none" xmlns="http://www.w3.org/2000/svg">
<path fill-rule="evenodd" clip-rule="evenodd" d="M12.7718 0.0618538C12.847 0.0975373 12.9307 0.168533 12.9577 0.219589C12.9968 0.293332 13.0049 2.21074 12.9975 9.55214L12.9882 18.7918L12.8801 18.8798C12.7431 18.9913 12.5308 19.0297 12.3467 18.9761C12.2531 18.9489 10.1197 17.3615 6.19978 14.4023C2.89781 11.9097 0.152051 9.82889 0.0980978 9.77835C0.0196981 9.70494 0 9.6495 0 9.50239C0 9.34658 0.0180893 9.30165 0.117717 9.21027C0.337613 9.0085 12.1241 0.12999 12.2607 0.0631906C12.4322 -0.0206156 12.5971 -0.0210611 12.7718 0.0618538Z" fill="black"/>
</svg>
