<svg width="60" height="33" viewBox="0 0 60 33" fill="none" xmlns="http://www.w3.org/2000/svg">
<path fill-rule="evenodd" clip-rule="evenodd" d="M59.2811 0.3954C59.9836 0.78195 60 0.83505 60 2.7276C60 4.60365 59.9785 4.6752 59.3144 5.0139C58.9372 5.20605 58.2469 5.4054 57.7803 5.4567C56.6719 5.57865 3.32809 5.57865 2.21973 5.4567C1.75309 5.4054 1.06282 5.20605 0.685638 5.0139C0.0223656 4.6758 0 4.602 0 2.7528C0 0.8829 0.0158157 0.83235 0.732815 0.42075L1.46563 0H30.0139H58.5619L59.2811 0.3954ZM59.3313 14.1969C59.9681 14.5749 60 14.6844 60 16.5015C60 18.3626 59.9825 18.4188 59.2811 18.8046L58.5619 19.2H40.0688H21.576L20.8159 18.8405C20.0836 18.4941 20.0523 18.4202 19.9522 16.8119C19.8406 15.0194 20.0921 14.4066 21.0982 14.019C21.5831 13.8323 24.3878 13.8 40.1645 13.8H58.6623L59.3313 14.1969ZM58.2207 27.609C59.7562 27.861 59.9872 28.2148 59.994 30.3242L60 32.2233L59.1608 32.6117L58.3219 33H29.88H1.43809L0.718906 32.6046C0.0193634 32.2199 0 32.1588 0 30.3492C0 28.2177 0.249542 27.851 1.869 27.6036C3.12109 27.4124 57.0537 27.4174 58.2207 27.609Z" fill="black"/>
</svg>
