<svg width="23" height="30" viewBox="0 0 23 30" fill="none" xmlns="http://www.w3.org/2000/svg">
<path fill-rule="evenodd" clip-rule="evenodd" d="M1.82992 0.0873938C1.10485 0.255692 0.408641 0.870296 0.139254 1.57993L0 1.94671V14.9983V28.0498L0.139254 28.4166C0.418721 29.1528 1.15501 29.7788 1.91595 29.927C2.41501 30.0243 20.5635 30.0243 21.063 29.9271C21.9841 29.7477 22.69 29.0522 22.9199 28.0973C22.9994 27.7675 23.0085 26.1485 22.9947 14.8342L22.979 1.94671L22.8389 1.57751C22.553 0.824025 21.8456 0.223526 21.063 0.0699704C20.5338 -0.0338038 2.28122 -0.0172739 1.82992 0.0873938ZM12 6.94811C12.9503 7.40737 13.0012 8.83615 12.0868 9.38195L11.8195 9.54151H8.27963H4.73979L4.45642 9.36427C3.9564 9.05168 3.71335 8.40452 3.86737 7.79605C3.95184 7.46232 4.37008 6.99068 4.66035 6.90171C4.77626 6.86616 6.30392 6.83878 8.30962 6.83623C11.5236 6.83221 11.7759 6.8398 12 6.94811ZM18.4366 13.7798C19.4138 14.3145 19.4037 15.7327 18.4192 16.2175C18.1902 16.3303 17.8725 16.3358 11.4721 16.3371C4.98866 16.3385 4.75761 16.3344 4.5424 16.2168C3.56516 15.6821 3.57488 14.3153 4.55979 13.7639C4.72059 13.6738 5.45795 13.6629 11.4769 13.6606C17.991 13.6581 18.2213 13.662 18.4366 13.7798ZM18.5225 20.6323C19.0274 20.9479 19.2654 21.5846 19.1055 22.1918C19.006 22.57 18.6341 22.9803 18.2922 23.089C17.9345 23.2027 5.04445 23.2027 4.68675 23.089C4.19099 22.9314 3.81103 22.3553 3.81019 21.7599C3.80935 21.2263 4.27643 20.6147 4.78394 20.4849C4.89164 20.4574 7.96314 20.4394 11.6095 20.445L18.2392 20.455L18.5225 20.6323Z" fill="black"/>
</svg>
