<svg width="13" height="19" viewBox="0 0 13 19" fill="none" xmlns="http://www.w3.org/2000/svg">
<path fill-rule="evenodd" clip-rule="evenodd" d="M0.228214 0.0618538C0.152992 0.0975373 0.0692953 0.168533 0.0422596 0.219589C0.00321663 0.293332 -0.0049451 2.21074 0.00247109 9.55214L0.0118492 18.7918L0.119914 18.8798C0.256897 18.9913 0.469181 19.0297 0.653252 18.9761C0.746877 18.9489 2.88027 17.3615 6.80022 14.4023C10.1022 11.9097 12.8479 9.82889 12.9019 9.77835C12.9803 9.70494 13 9.6495 13 9.50239C13 9.34658 12.9819 9.30165 12.8823 9.21027C12.6624 9.0085 0.875895 0.12999 0.739303 0.0631906C0.567828 -0.0206156 0.402867 -0.0210611 0.228214 0.0618538Z" fill="black"/>
</svg>
