<svg width="30" height="30" viewBox="0 0 30 30" fill="none" xmlns="http://www.w3.org/2000/svg">
<path fill-rule="evenodd" clip-rule="evenodd" d="M14.0579 0.0522284C10.3347 0.457423 7.17192 3.45319 6.39706 7.30841C6.26821 7.94967 6.15985 9.37157 6.21247 9.73176C6.25587 10.0293 6.25717 10.0307 6.44245 9.98906C8.83253 9.45161 11.2239 9.749 13.3857 10.8525C13.7429 11.0348 14.2516 11.3358 14.5163 11.5216L14.9975 11.8593L15.4788 11.5216C16.8903 10.5311 18.651 9.91345 20.4972 9.76107C21.4539 9.68207 22.3785 9.73865 23.2629 9.93014C23.5042 9.98241 23.7187 10.0071 23.7396 9.985C23.7604 9.96295 23.7743 9.53867 23.7703 9.04223C23.737 4.79868 20.773 1.04764 16.7864 0.203814C15.8019 -0.00453948 14.9926 -0.0494858 14.0579 0.0522284ZM7.80331 11.6182C7.16834 11.7017 6.66004 11.8115 6.62375 11.8731C6.577 11.9524 6.75178 12.4773 7.048 13.1476C7.71809 14.6638 8.91792 16.1038 10.2516 16.9923C10.6335 17.2467 11.033 17.4675 11.1115 17.4675C11.1409 17.4675 11.2372 17.2542 11.3254 16.9936C11.526 16.4011 11.8625 15.6582 12.1843 15.0971C12.4871 14.5691 13.1598 13.6221 13.4063 13.377C13.5063 13.2775 13.588 13.1667 13.5879 13.1307C13.5877 13.0468 12.7418 12.5403 12.2079 12.3044C11.6692 12.0663 10.9196 11.8333 10.2993 11.711C9.69924 11.5927 8.37215 11.5434 7.80331 11.6182ZM20.4299 11.5954C19.5855 11.6917 18.5377 11.9727 17.7871 12.3044C17.2533 12.5403 16.4074 13.0468 16.4072 13.1307C16.4071 13.1667 16.4888 13.2775 16.5888 13.377C16.8353 13.6221 17.508 14.5691 17.8108 15.0971C18.1326 15.6582 18.469 16.4011 18.6697 16.9936C18.7579 17.2542 18.8621 17.4675 18.9012 17.4675C18.9403 17.4675 19.1923 17.3289 19.4613 17.1594C21.2487 16.0332 22.5732 14.3689 23.2487 12.4004C23.3468 12.1146 23.3921 11.8977 23.3605 11.8646C23.203 11.6995 21.162 11.512 20.4299 11.5954ZM4.51105 12.7159C3.53616 13.2796 2.36024 14.3687 1.67963 15.3384C1.21832 15.9956 0.61383 17.2121 0.406284 17.901C0.089561 18.952 0.00011757 19.5753 1.12898e-07 20.7307C-0.000117344 21.9934 0.0913816 22.6214 0.431654 23.6936C0.710673 24.5729 0.973894 25.1341 1.48125 25.9314C3.65773 29.3519 7.83444 30.8409 11.5619 29.5251C12.135 29.3229 13.1959 28.791 13.4498 28.5789L13.6077 28.4469L13.2106 27.9598C11.9412 26.4026 11.1215 24.5216 10.7981 22.4239C10.701 21.7938 10.6609 19.9372 10.7366 19.5757C10.7754 19.3908 10.7692 19.3852 10.1543 19.0485C8.50735 18.1468 7.27505 16.9918 6.23872 15.3787C5.80631 14.7056 5.29989 13.6608 5.06533 12.9575C4.98904 12.7289 4.90001 12.5424 4.86742 12.543C4.83482 12.5436 4.67443 12.6214 4.51105 12.7159ZM24.8968 13.0453C24.0067 15.6717 22.1191 17.8558 19.589 19.187C19.23 19.3758 19.2192 19.3884 19.2578 19.5725C19.3341 19.9366 19.2945 21.791 19.197 22.4239C18.8736 24.5216 18.0539 26.4026 16.7845 27.9598L16.3874 28.4469L16.5453 28.5789C16.7992 28.791 17.8601 29.3229 18.4332 29.5251C20.4718 30.2448 22.7462 30.1402 24.7358 29.2355C26.5885 28.3931 28.1972 26.7885 29.1189 24.8634C29.4087 24.2581 29.7667 23.1148 29.8924 22.3931C30.0343 21.5789 30.0362 19.9101 29.8961 19.1762C29.4544 16.8609 28.3155 14.9008 26.5964 13.4973C26.1321 13.1182 25.2465 12.5419 25.1284 12.5419C25.0949 12.5419 24.9907 12.7685 24.8968 13.0453ZM14.5928 14.7556C14.1221 15.3289 13.6821 16.0217 13.3689 16.6826C13.0496 17.3561 12.8097 18.0154 12.8469 18.1169C12.9029 18.2699 13.9744 18.4219 14.9975 18.4219C16.0207 18.4219 17.0922 18.2699 17.1482 18.1169C17.2173 17.9282 16.6204 16.5581 16.1235 15.7647C15.7613 15.1864 15.0884 14.3274 14.9975 14.3274C14.9682 14.3274 14.7861 14.5201 14.5928 14.7556ZM12.4595 20.3706C12.4218 20.9018 12.5004 22.0094 12.6182 22.6086C12.9282 24.1848 13.6922 25.7735 14.7057 26.9493L14.9975 27.288L15.2894 26.9493C16.3028 25.7735 17.0668 24.1848 17.3769 22.6086C17.4946 22.01 17.5733 20.902 17.5357 20.372C17.5101 20.0112 17.4988 19.9849 17.3829 20.0154C16.69 20.1977 16.0555 20.2636 14.9975 20.2631C13.913 20.2625 13.634 20.2334 12.6705 20.0202L12.4872 19.9796L12.4595 20.3706Z" fill="black"/>
</svg>
