<svg width="30" height="30" viewBox="0 0 30 30" fill="none" xmlns="http://www.w3.org/2000/svg">
<path fill-rule="evenodd" clip-rule="evenodd" d="M13.6104 0.034518C10.0956 0.376265 6.88067 1.89065 4.38497 4.38008C2.05305 6.70616 0.63037 9.55665 0.109061 12.9472C-0.0363537 13.8929 -0.0363537 16.1105 0.109061 17.0562C0.630018 20.4445 2.04084 23.2738 4.37716 25.6155C6.7035 27.9472 9.55432 29.3697 12.9453 29.891C13.891 30.0364 16.109 30.0364 17.0547 29.891C20.4434 29.3701 23.2731 27.9594 25.615 25.6233C27.9469 23.2973 29.3696 20.4468 29.8909 17.0562C30.0364 16.1105 30.0364 13.8929 29.8909 12.9472C29.37 9.55888 27.9592 6.72958 25.6228 4.38789C23.3123 2.07203 20.4277 0.626324 17.1134 0.123154C16.3799 0.0118014 14.3679 -0.0390909 13.6104 0.034518ZM22.7181 9.32444C23.0608 9.5185 23.2188 9.78558 23.2188 10.1706C23.2188 10.345 23.1809 10.559 23.1345 10.6462C23.0104 10.8796 13.2422 20.6092 13.0216 20.7193C12.8049 20.8273 12.4971 20.8401 12.2593 20.7511C12.0719 20.6809 6.99439 15.6448 6.86518 15.4009C6.74729 15.1785 6.75956 14.7177 6.88989 14.4725C7.10405 14.0696 7.58732 13.8705 8.0343 14.0012C8.24048 14.0615 8.61397 14.4074 10.4509 16.239L12.6236 18.4054L17.1426 13.8865C19.6281 11.4012 21.7413 9.32843 21.8385 9.28041C22.0954 9.15368 22.4477 9.17129 22.7181 9.32444Z" fill="black"/>
</svg>
