<svg width="34" height="47" viewBox="0 0 34 47" fill="none" xmlns="http://www.w3.org/2000/svg">
<path fill-rule="evenodd" clip-rule="evenodd" d="M7.89954 0.0485863C7.86142 0.0874223 7.8303 1.00868 7.8303 2.09598V4.07273H3.91515H0V7.11663V10.1605H17H34V7.11663V4.07273H30.0356H26.0711L26.0432 2.05221L26.0152 0.0316874L16.992 0.00492216C12.0292 -0.0098775 7.93766 0.00985522 7.89954 0.0485863ZM3.46553 14.3821C2.91885 14.5309 2.21917 15.239 2.05195 15.8125C1.93553 16.2118 2.03866 18.0849 2.87558 30.7696C3.57464 41.3671 3.8725 45.3692 3.98212 45.6377C4.18437 46.1332 4.60175 46.5682 5.1 46.8032C5.49316 46.9887 6.03273 46.9977 16.8043 46.9999C24.9775 47.0016 28.1932 46.9693 28.4468 46.8828C28.995 46.6958 29.4258 46.315 29.6696 45.8017C29.8794 45.3602 29.955 44.4041 30.8508 30.8679C31.9106 14.8529 31.8906 15.751 31.2056 15.025C30.4679 14.2429 31.7286 14.3084 17.0515 14.2902C8.2586 14.2792 3.73093 14.3099 3.46553 14.3821Z" fill="black"/>
</svg>
